<svg xmlns="http://www.w3.org/2000/svg" viewBox="0 0 480 300">
  <g fill="black">
   <path d="M203 126c8,-13 13,-29 13,-46 -1,-44 -38,-80 -82,-80l-123 0c-6,0 -11,5 -11,11l0 275c0,6 5,11 11,11l138 0c51,0 93,-42 93,-94 1,-32 -15,-60 -39,-77zm-149 -71l81 0c15,0 27,12 27,27 0,15 -12,27 -27,27l-81 0 0 -54zm96 187l-96 0 0 -78 81 0 15 0c21,0 38,17 38,39 0,21 -17,39 -38,39z"/>
   <path d="M480 184c0,-65 -50,-117 -111,-117 -62,0 -111,52 -111,117 0,64 49,116 111,116 37,0 72,-19 92,-52 3,-4 5,-8 7,-12 2,-3 0,-7 -4,-7l-55 0c-1,0 -2,0 -3,1 -10,10 -23,15 -37,15 -27,0 -50,-21 -56,-48l156 0c6,0 11,-5 11,-11l0 -2zm-111 -62c20,0 37,11 47,28l-95 0c10,-17 28,-28 48,-28z"/>
   <path d="M415 54l-99 0c-4,0 -8,-4 -8,-9l0 -25c0,-5 4,-8 8,-8l99 0c5,0 8,3 8,8l0 25c0,5 -3,9 -8,9z"/>
  <g/>
</svg>
