<svg xmlns="http://www.w3.org/2000/svg" viewBox="0 0 140 270"> <path fill="#fff" d="M136 222c3,0 4,3 4,9 0,4 -2,9 -6,14 -8,9 -15,14 -20,17 -10,5 -21,8 -32,8 -12,0 -22,-4 -33,-10 -10,-7 -19,-17 -26,-29 -16,-25 -23,-58 -23,-98 0,-20 2,-38 6,-54 5,-16 11,-30 18,-42 16,-25 37,-37 61,-37 14,0 26,4 36,12 11,8 17,15 17,21 0,3 -1,5 -2,6 0,2 -2,3 -3,3 -2,0 -4,-2 -6,-5 -2,-4 -5,-7 -8,-10 -3,-3 -7,-5 -11,-7 -8,-4 -15,-6 -21,-6 -7,0 -12,0 -16,2l0 238c5,1 9,2 13,2 4,0 8,0 12,-1 5,-1 9,-3 13,-5 8,-4 15,-11 20,-19 1,-4 3,-6 3,-7 1,-1 2,-2 4,-2z"/> </svg>
