<svg xmlns="http://www.w3.org/2000/svg" viewBox="0 0 111 270"><path fill="#fff" d="M10 253c-3,-3 -5,-5 -7,-8 -2,-3 -3,-6 -3,-9 0,-6 2,-9 5,-9 2,0 4,2 6,6 3,4 5,7 8,10 3,2 7,5 10,7 7,4 14,6 20,6 7,0 11,-1 15,-2 3,-1 6,-3 8,-6 5,-5 7,-11 7,-19 0,-7 -2,-15 -6,-22 -4,-7 -9,-14 -15,-23l-19 -25c-19,-24 -30,-47 -33,-67 -1,-7 -2,-15 -2,-23 0,-9 1,-18 4,-26 2,-8 5,-16 10,-22 10,-14 23,-21 40,-21 8,0 16,2 23,7 7,4 11,8 14,11 2,3 4,6 4,9 0,6 -2,9 -5,9 -1,0 -3,-2 -5,-4 -2,-3 -4,-6 -6,-8 -2,-2 -5,-4 -8,-5 -6,-4 -12,-5 -18,-5 -11,0 -16,6 -16,18 0,5 1,10 3,14 3,8 10,18 20,33 11,13 19,26 25,36 6,11 11,20 14,29 5,13 8,27 8,41 0,14 -2,26 -5,36 -3,10 -7,19 -12,26 -11,15 -25,23 -42,23 -17,0 -31,-6 -42,-17l0 0z"/></svg>
